<?xml version="1.0" encoding="UTF-8"?>
<svg xmlns="http://www.w3.org/2000/svg" viewBox="0 0 2000 313" width="2000" height="313">
  <title>AppSamurai Logo - White Transparent</title>
  
  <g transform="translate(0.000000,313.000000) scale(0.100000,-0.100000)" fill="#FFFFFF" stroke="none">

<path d="M7355 3109 c-90 -13 -231 -55 -312 -94 -312 -147 -473 -451 -408
-770 26 -125 68 -201 161 -291 128 -125 320 -208 624 -270 371 -75 484 -122
519 -216 10 -26 11 -26 83 -22 173 10 457 24 497 24 l44 0 -6 78 c-21 256
-167 422 -478 545 -67 27 -284 85 -394 107 -154 30 -285 65 -342 91 -98 47
-125 114 -84 206 35 75 108 105 261 105 129 0 253 -26 391 -83 55 -22 104 -37
111 -33 12 7 177 112 328 209 36 23 85 54 108 69 43 27 44 28 25 48 -24 27
-165 119 -238 155 -135 67 -289 114 -460 138 -108 16 -334 18 -430 4z"/>
<path d="M726 2998 c-19 -51 -88 -232 -152 -403 -64 -170 -172 -458 -241 -640
-254 -675 -325 -867 -320 -871 2 -3 152 2 333 10 181 9 527 25 769 36 737 33
1099 51 1111 53 6 1 -33 117 -92 272 -57 149 -113 295 -123 325 -11 30 -43
116 -71 190 -29 74 -110 290 -182 480 -72 190 -146 386 -165 435 -19 50 -44
116 -55 148 l-20 57 -378 0 -378 0 -36 -92z m474 -613 c28 -82 78 -226 110
-320 32 -93 79 -228 104 -300 25 -71 46 -136 46 -142 0 -10 -71 -13 -320 -13
-193 0 -320 4 -320 9 0 9 97 298 227 676 30 88 62 181 71 208 9 26 19 44 23
40 3 -5 30 -75 59 -158z"/>
<path d="M19315 2788 c-26 -15 -48 -38 -62 -68 -22 -42 -23 -55 -23 -291 0
-238 1 -247 23 -290 15 -27 38 -52 63 -66 38 -22 49 -23 297 -23 294 0 309 3
354 71 l28 42 3 251 c3 285 -2 315 -66 364 l-35 27 -271 3 c-265 2 -272 2
-311 -20z"/>
<path d="M3448 2465 c-116 -29 -248 -107 -325 -194 l-22 -26 -1 98 0 97 -270
0 -270 0 0 -620 0 -620 58 0 c31 0 183 7 337 15 154 8 296 15 315 15 35 1 34
1 -25 30 -33 16 -79 45 -102 65 l-43 37 0 262 0 263 28 28 c114 116 303 156
433 91 201 -101 297 -402 189 -593 -30 -53 -123 -153 -142 -153 -4 0 -8 -3 -8
-7 0 -9 31 -8 424 12 194 10 281 18 287 26 32 52 41 387 15 538 -61 340 -267
574 -564 636 -84 18 -239 18 -314 0z"/>
<path d="M5501 2460 c-94 -25 -191 -79 -262 -147 -31 -29 -59 -53 -62 -53 -4
0 -7 41 -7 90 l0 90 -270 0 -270 0 0 -576 0 -576 53 6 c28 3 131 8 227 12 96
4 189 8 205 9 17 2 45 3 63 4 l33 1 -20 26 c-20 25 -21 39 -21 284 l0 257 37
36 c74 75 216 125 321 114 158 -16 293 -163 328 -355 7 -42 13 -91 14 -108 0
-43 -34 -169 -55 -200 l-17 -27 178 7 c99 3 234 9 301 12 l121 7 6 29 c16 82
17 249 2 362 -60 449 -335 718 -733 715 -63 0 -124 -7 -172 -19z"/>
<path d="M9420 2474 c-14 -2 -52 -9 -85 -15 -166 -29 -335 -99 -458 -190 l-68
-50 30 -52 c17 -29 59 -103 93 -164 35 -62 67 -113 71 -113 5 0 29 14 55 32
129 89 271 133 427 132 234 -1 345 -89 345 -276 0 -43 -2 -78 -3 -78 -2 0 -30
13 -63 30 -105 52 -173 65 -339 65 -166 0 -239 -13 -365 -64 -90 -37 -162 -84
-224 -148 -43 -43 -72 -90 -63 -99 2 -2 86 1 188 6 195 11 976 46 1219 55 80
4 156 8 169 11 l24 5 -6 197 c-5 223 -24 311 -88 417 -48 80 -151 174 -233
214 -125 60 -238 83 -431 86 -93 2 -181 2 -195 -1z"/>
<path d="M11702 2465 c-126 -29 -253 -93 -342 -172 -26 -24 -51 -43 -54 -43
-3 0 -6 43 -6 95 l0 95 -267 -2 -268 -3 0 -430 c0 -376 2 -430 15 -430 150 5
401 17 453 21 l67 7 0 120 0 120 54 52 c84 81 131 100 251 100 90 0 104 -3
138 -25 24 -16 46 -44 62 -77 22 -45 25 -66 25 -157 0 -58 3 -107 8 -109 4 -3
124 0 267 7 l260 11 3 102 3 102 54 49 c78 71 132 94 236 100 81 4 91 2 138
-23 70 -39 94 -89 99 -212 l4 -93 52 1 c28 1 148 6 266 12 l215 12 -1 200 c0
163 -3 211 -18 260 -68 227 -244 336 -521 322 -199 -9 -348 -77 -492 -224
l-62 -64 -20 42 c-51 105 -127 172 -247 216 -87 32 -272 41 -372 18z"/>
<path d="M16862 2469 c-123 -24 -280 -108 -361 -193 -19 -20 -39 -36 -43 -36
-4 0 -8 45 -8 100 l0 100 -267 -2 -268 -3 -3 -314 -2 -314 92 6 c51 4 175 9
276 13 l183 7 39 32 c105 88 305 131 458 99 l22 -4 0 260 0 260 -37 -1 c-21
-1 -58 -5 -81 -10z"/>
<path d="M17820 2474 c-217 -33 -394 -99 -537 -201 -35 -24 -63 -50 -63 -58 0
-7 19 -46 43 -87 24 -40 65 -112 91 -161 l48 -87 48 35 c120 88 278 139 435
139 138 1 212 -23 282 -92 l47 -45 230 7 c127 5 249 11 271 15 37 6 40 8 36
36 -16 136 -116 294 -240 378 -72 49 -194 93 -316 112 -81 13 -309 18 -375 9z"/>
<path d="M13837 2433 c-4 -3 -7 -168 -7 -366 l0 -359 53 5 c28 4 129 9 222 12
94 3 191 8 218 11 l47 6 0 349 0 349 -263 0 c-145 0 -267 -3 -270 -7z"/>
<path d="M14980 2103 l0 -336 163 7 c89 3 210 9 270 13 l107 6 0 324 0 323
-270 0 -270 0 0 -337z"/>
<path d="M19560 1857 c-135 -6 -208 -13 -212 -20 -4 -7 -8 -276 -8 -599 l0
-588 270 0 270 0 0 610 0 610 -57 -2 c-32 0 -150 -5 -263 -11z"/>
<path d="M18735 1809 c-93 -4 -206 -11 -250 -14 l-80 -6 3 -94 4 -95 -74 34
c-126 59 -183 69 -353 63 -124 -4 -165 -9 -239 -31 -237 -71 -387 -197 -426
-356 -20 -79 -18 -232 4 -305 65 -219 252 -367 509 -400 67 -9 225 12 309 41
82 28 179 80 228 125 l35 31 3 -76 3 -76 270 0 269 0 -2 583 c-3 574 -3 582
-23 583 -11 1 -96 -2 -190 -7z m-325 -533 l0 -144 -45 -46 c-66 -65 -176 -117
-262 -123 -284 -20 -364 250 -111 375 93 45 225 73 391 81 l27 1 0 -144z"/>
<path d="M16315 1696 l-220 -11 -3 -517 -2 -518 270 0 270 0 2 530 3 530 -50
-2 c-27 -1 -149 -6 -270 -12z"/>
<path d="M15450 1658 c-113 -5 -224 -11 -247 -14 l-43 -5 0 -197 0 -197 -28
-31 c-36 -42 -124 -101 -170 -114 -159 -47 -318 -4 -374 102 -21 39 -23 58
-26 227 l-4 184 -196 -7 c-108 -3 -230 -9 -270 -13 l-74 -6 4 -301 4 -301 27
-70 c37 -93 71 -140 142 -197 99 -80 208 -111 390 -111 189 -1 362 59 503 173
34 28 64 50 67 50 3 0 5 -40 5 -89 0 -75 3 -90 17 -93 9 -2 130 -2 270 0 l253
3 0 503 c0 450 -2 505 -16 510 -9 3 -19 5 -22 4 -4 -1 -99 -5 -212 -10z"/>
<path d="M13285 1558 c-99 -5 -186 -10 -192 -13 -10 -3 -13 -102 -13 -450 l0
-445 270 0 270 0 0 460 0 460 -77 -2 c-43 0 -159 -5 -258 -10z"/>
<path d="M12170 1506 c-151 -11 -155 -12 -153 -33 0 -13 1 -203 2 -423 l1
-400 270 0 271 0 -1 435 -1 435 -117 -1 c-64 -1 -187 -7 -272 -13z"/>
<path d="M11150 1459 c-74 -3 -150 -7 -167 -8 l-33 -1 0 -400 0 -400 270 0
270 0 0 394 c0 217 -3 401 -6 410 -7 18 -78 19 -334 5z"/>
<path d="M10285 1420 c-66 -4 -155 -8 -197 -9 l-78 -1 0 -139 0 -139 -55 -50
c-121 -111 -278 -151 -393 -102 -91 39 -133 109 -119 197 12 69 91 143 200
184 32 12 56 24 53 26 -10 10 -751 -30 -763 -41 -24 -23 -38 -160 -26 -254 25
-192 127 -334 302 -421 121 -61 225 -78 368 -61 156 19 309 83 398 167 l35 33
0 -79 c0 -44 4 -81 10 -83 5 -2 127 -2 270 0 l260 3 0 389 0 390 -72 -2 c-40
-1 -127 -5 -193 -8z"/>
<path d="M8440 1334 c-129 -6 -252 -12 -272 -13 -33 -1 -38 -4 -38 -24 0 -13
-13 -42 -29 -64 -114 -157 -501 -149 -808 17 l-74 40 -105 -68 c-57 -37 -137
-88 -177 -114 -39 -26 -100 -64 -134 -85 -35 -20 -63 -42 -63 -48 0 -34 231
-187 375 -249 293 -126 697 -158 1015 -80 180 45 319 122 427 238 105 112 165
247 179 397 l7 69 -34 -2 c-19 0 -140 -7 -269 -14z"/>
<path d="M6230 1236 l-255 -11 -63 -42 c-77 -51 -142 -67 -255 -61 -73 4 -97
10 -159 41 l-74 36 -264 -14 c-146 -8 -282 -15 -302 -15 l-38 0 0 -585 0 -585
265 0 265 0 0 408 c0 225 3 412 6 415 4 4 30 -15 59 -41 111 -101 219 -153
357 -172 243 -34 486 63 641 255 71 89 157 286 157 361 0 22 -4 24 -42 22 -24
0 -158 -6 -298 -12z"/>
<path d="M4155 1139 c-93 -4 -269 -12 -390 -18 -235 -12 -293 -15 -675 -31
-135 -6 -267 -12 -295 -14 l-50 -2 -3 -537 -2 -537 270 0 270 0 0 415 c0 228
3 415 8 415 4 0 33 -24 64 -52 146 -137 327 -195 524 -168 249 33 434 164 544
385 27 55 53 112 56 128 l6 27 -78 -2 c-44 0 -155 -5 -249 -9z"/>
<path d="M2100 1045 c-135 -7 -255 -13 -267 -14 -13 -1 -23 -7 -23 -13 0 -7
26 -93 57 -190 l58 -178 328 0 328 0 -7 22 c-3 12 -37 103 -74 203 l-68 180
-43 1 c-24 1 -154 -4 -289 -11z"/>
<path d="M660 979 c-475 -19 -477 -19 -488 -43 -17 -36 -102 -267 -102 -277 0
-5 130 -9 324 -9 l324 0 55 163 c30 89 52 164 49 167 -4 3 -77 3 -162 -1z"/>
  </g>
  <g transform="translate(0.000000,313.000000) scale(0.100000,-0.100000)" fill="#2EC97E" stroke="none">

<path d="M19342 2784 c-7 -8 -17 -12 -22 -9 -5 3 -19 -9 -31 -27 -13 -18 -26
-35 -29 -38 -12 -11 -14 -55 -16 -285 -1 -229 0 -241 20 -270 12 -16 27 -34
34 -38 6 -4 12 -15 12 -22 0 -8 9 -15 20 -15 11 0 20 -4 20 -10 0 -15 472 -13
524 2 48 14 55 20 87 73 24 39 25 46 28 262 4 271 -3 310 -63 350 -23 16 -42
31 -44 36 -2 4 -121 7 -265 7 -219 -1 -264 -3 -275 -16z"/>
  </g>
</svg>