<?xml version="1.0" encoding="UTF-8"?>
<svg xmlns="http://www.w3.org/2000/svg" viewBox="0 0 2000 313" width="2000" height="313">
  <title>AppSamurai Logo - Dark Transparent</title>
  
  <g transform="translate(0.000000,313.000000) scale(0.100000,-0.100000)" fill="#222222" stroke="none">

<path d="M7310 3103 c-325 -58 -572 -248 -657 -507 -22 -69 -26 -99 -27 -206
-1 -173 30 -270 124 -389 117 -148 319 -240 706 -321 220 -47 307 -71 374
-105 51 -26 95 -68 108 -105 10 -28 8 -28 347 -10 94 6 194 10 223 10 l52 0 0
61 c0 122 -51 254 -135 347 -130 145 -331 236 -685 312 -331 71 -433 105 -473
161 -51 71 -19 175 68 219 47 23 59 25 200 25 167 0 237 -15 392 -81 47 -20
88 -32 95 -28 90 53 478 308 478 314 0 10 -103 85 -184 134 -128 77 -327 145
-504 171 -126 19 -390 18 -502 -2z"/>
<path d="M755 3073 c-8 -23 -367 -975 -582 -1546 -90 -242 -163 -440 -161
-442 3 -3 651 25 1578 69 63 3 232 11 375 17 143 6 263 14 266 18 4 3 -60 184
-143 401 -82 217 -223 591 -313 830 -91 239 -184 487 -209 550 l-44 115 -380
3 c-355 2 -380 1 -387 -15z m395 -536 c0 -2 30 -89 66 -193 156 -446 244 -707
244 -720 0 -12 -52 -14 -321 -14 -253 0 -320 3 -317 13 3 6 74 216 158 465 85
248 158 452 162 452 4 0 8 -1 8 -3z"/>
<path d="M3485 2476 c-129 -25 -231 -78 -329 -170 -27 -25 -51 -46 -53 -46 -2
0 -3 40 -3 89 0 66 -4 90 -14 94 -7 3 -128 5 -267 4 l-254 -2 -3 -622 -2 -623
25 0 c29 0 644 29 690 33 28 2 26 4 -29 32 -32 16 -78 47 -102 68 l-44 39 0
258 0 257 44 41 c83 76 197 117 305 110 167 -12 295 -146 338 -353 30 -150 -8
-267 -124 -376 l-64 -59 48 0 c115 0 658 31 664 38 27 29 46 327 30 458 -55
451 -306 716 -699 738 -54 4 -114 0 -157 -8z"/>
<path d="M5575 2480 c-130 -20 -254 -82 -340 -169 -27 -28 -53 -51 -57 -51 -4
0 -8 43 -8 95 l0 94 -267 -2 -268 -2 -3 -569 c-1 -314 1 -573 5 -576 9 -7 564
18 572 25 2 3 -5 15 -17 28 -21 23 -22 30 -22 279 l0 255 44 41 c24 22 61 49
83 60 189 97 378 53 485 -113 91 -140 109 -348 43 -477 l-24 -48 42 0 c23 0
158 5 299 12 213 9 258 14 263 27 3 8 9 72 12 141 15 319 -68 580 -242 756
-123 124 -267 187 -455 198 -47 3 -112 1 -145 -4z"/>
<path d="M9475 2483 c-259 -30 -419 -86 -593 -206 -40 -27 -71 -53 -70 -58 10
-27 184 -328 190 -329 4 0 38 20 75 44 264 171 609 168 717 -7 23 -38 30 -62
34 -122 7 -107 4 -110 -61 -74 -205 111 -559 93 -797 -39 -65 -37 -146 -107
-181 -159 -17 -24 -29 -46 -27 -48 1 -2 275 10 608 25 333 16 679 31 770 35
91 3 180 8 199 11 l33 5 -5 197 c-5 220 -15 271 -73 391 -70 142 -217 253
-399 300 -125 32 -310 47 -420 34z"/>
<path d="M11755 2479 c-157 -24 -332 -111 -426 -212 -22 -24 -21 -28 -19 89 1
50 -3 74 -13 82 -11 9 -84 12 -273 10 l-259 -3 -3 -425 c-1 -234 0 -429 2
-435 2 -7 85 -6 247 2 134 6 256 12 272 12 l27 1 0 129 0 129 53 47 c78 69
147 98 232 99 91 1 117 -7 165 -50 51 -47 70 -108 70 -229 0 -50 2 -94 4 -96
2 -2 114 1 248 8 133 6 253 12 266 12 21 1 22 4 22 100 l0 99 58 53 c131 120
303 142 403 52 48 -43 69 -108 69 -211 l0 -74 38 6 c20 3 120 8 222 11 102 3
207 8 234 11 l49 6 -6 202 c-4 170 -8 212 -27 271 -67 209 -219 308 -475 308
-135 1 -206 -17 -334 -79 -76 -38 -110 -62 -177 -128 l-83 -82 -28 53 c-52
103 -147 180 -270 216 -66 20 -212 28 -288 16z"/>
<path d="M16888 2479 c-124 -18 -277 -95 -385 -193 l-52 -47 -3 103 -3 103
-265 0 -265 0 -3 -319 -2 -319 107 6 c60 4 182 10 272 13 l165 7 50 38 c97 74
260 117 398 105 l78 -6 -2 257 c-3 290 5 266 -90 252z"/>
<path d="M17865 2483 c-219 -20 -437 -98 -592 -211 -35 -25 -63 -48 -63 -50 0
-11 186 -332 193 -332 4 0 34 19 67 41 129 88 298 136 449 126 114 -6 187 -35
246 -94 l45 -46 272 12 c150 7 274 13 275 15 8 8 -34 144 -64 205 -93 188
-288 301 -573 331 -92 9 -173 10 -255 3z"/>
<path d="M13837 2443 c-4 -3 -7 -168 -7 -366 l0 -360 200 8 c110 4 233 10 273
14 l72 6 3 339 c2 242 -1 343 -9 352 -9 11 -63 14 -269 14 -141 0 -260 -3
-263 -7z"/>
<path d="M14993 2443 c-10 -4 -13 -81 -13 -340 l0 -335 178 7 c97 4 218 10
267 14 l90 6 0 325 0 325 -255 1 c-140 1 -261 0 -267 -3z"/>
<path d="M19565 1860 c-66 -4 -144 -8 -172 -9 l-53 -1 0 -600 0 -600 270 0
270 0 0 610 0 610 -97 -2 c-54 -1 -152 -5 -218 -8z"/>
<path d="M18630 1805 c-124 -7 -225 -13 -225 -14 -1 0 1 -44 3 -96 l4 -94 -68
34 c-110 56 -179 70 -339 69 -118 -1 -155 -5 -239 -27 -259 -69 -421 -209
-455 -392 -23 -124 -6 -262 45 -372 39 -82 158 -198 247 -241 105 -51 182 -65
322 -59 66 3 147 12 180 21 89 25 193 79 253 131 l52 47 0 -81 0 -81 270 0
270 0 -2 583 -3 582 -45 1 c-25 1 -146 -4 -270 -11z m-220 -527 l0 -142 -51
-48 c-66 -62 -177 -117 -251 -125 -105 -11 -216 36 -253 106 -35 68 -6 175 61
226 92 70 264 117 457 124 l37 1 0 -142z"/>
<path d="M16266 1699 c-82 -5 -155 -11 -163 -13 -11 -4 -13 -103 -13 -521 l0
-515 270 0 270 0 0 530 0 530 -107 -1 c-60 -1 -175 -6 -257 -10z"/>
<path d="M15425 1659 c-71 -3 -160 -7 -197 -8 l-68 -1 0 -202 0 -202 -51 -48
c-28 -26 -76 -60 -107 -75 -52 -26 -66 -28 -173 -28 -111 0 -117 1 -164 30
-35 21 -56 45 -74 80 -25 47 -26 59 -29 234 l-4 184 -96 -7 c-53 -3 -175 -9
-269 -12 -114 -5 -173 -11 -174 -18 0 -6 0 -132 0 -279 1 -362 20 -437 140
-557 99 -99 226 -142 418 -141 200 0 375 60 513 176 l65 54 3 -95 3 -94 269 0
270 0 0 510 0 510 -72 -2 c-40 -1 -131 -5 -203 -9z"/>
<path d="M13350 1564 c-129 -6 -243 -12 -252 -13 -17 -1 -18 -29 -18 -451 l0
-450 270 0 270 0 0 465 c0 437 -1 465 -17 463 -10 0 -124 -7 -253 -14z"/>
<path d="M12509 1526 c-2 -2 -96 -7 -209 -11 -113 -5 -216 -9 -230 -10 -14 -1
-33 -3 -42 -4 -17 -1 -18 -28 -18 -426 l0 -425 270 0 270 0 0 440 c0 420 -1
440 -18 440 -10 0 -21 -2 -23 -4z"/>
<path d="M11185 1465 c-126 -7 -231 -13 -232 -14 -2 0 -3 -181 -3 -401 l0
-400 270 0 270 0 -2 413 -3 412 -35 1 c-19 1 -138 -4 -265 -11z"/>
<path d="M10225 1420 c-66 -4 -141 -8 -167 -9 l-48 -1 0 -139 0 -139 -51 -46
c-28 -25 -85 -63 -127 -83 -69 -34 -84 -38 -156 -38 -95 0 -162 27 -205 84
-36 48 -37 141 -2 193 31 44 98 90 176 120 49 19 55 24 35 27 -28 4 -549 -16
-672 -26 l-78 -6 -12 -41 c-18 -64 -15 -240 6 -311 45 -151 142 -264 286 -333
105 -50 162 -62 294 -62 175 0 347 59 455 156 l51 46 0 -81 0 -81 270 0 270 0
0 390 0 390 -102 -2 c-57 -1 -157 -5 -223 -8z"/>
<path d="M8360 1335 c-124 -7 -226 -13 -226 -14 -1 0 -4 -14 -7 -31 -9 -42
-69 -104 -126 -129 -163 -70 -443 -37 -676 79 -56 28 -104 50 -107 50 -4 0
-103 -62 -220 -138 -117 -76 -223 -144 -235 -151 -13 -6 -23 -16 -23 -21 0
-17 60 -67 161 -135 149 -101 300 -164 494 -205 143 -31 477 -39 625 -16 348
55 593 236 685 505 13 38 26 96 30 128 4 32 9 66 11 76 6 20 -33 21 -386 2z"/>
<path d="M6175 1238 l-200 -10 -50 -34 c-134 -90 -299 -97 -446 -17 l-47 25
-302 -14 c-192 -9 -304 -18 -308 -25 -4 -6 -6 -270 -4 -587 l2 -576 268 2 267
3 3 413 c1 226 5 412 8 412 3 0 31 -24 60 -53 66 -65 165 -122 259 -148 88
-25 253 -27 351 -4 196 45 370 187 468 382 22 45 76 210 76 234 0 11 -127 9
-405 -3z"/>
<path d="M4075 1140 c-198 -10 -421 -21 -495 -24 -639 -29 -817 -37 -828 -41
-10 -4 -12 -116 -10 -537 l3 -533 270 0 270 0 3 417 2 416 57 -55 c66 -63 144
-111 234 -145 57 -20 81 -23 219 -23 143 0 161 2 228 27 145 53 262 143 347
267 47 68 118 228 109 243 -3 4 -15 7 -27 7 -12 -1 -184 -10 -382 -19z"/>
<path d="M2030 1045 c-124 -7 -226 -13 -226 -14 -1 0 26 -85 60 -188 l62 -188
332 -3 332 -2 -18 47 c-10 27 -45 119 -78 206 l-59 157 -90 -2 c-49 -1 -191
-7 -315 -13z"/>
<path d="M690 983 c-30 -1 -156 -7 -280 -13 -154 -8 -227 -15 -232 -23 -9 -14
-108 -281 -108 -291 0 -3 147 -5 326 -4 l326 3 54 154 c30 84 54 160 54 167 0
14 -6 15 -140 7z"/>
  </g>
  <g transform="translate(0.000000,313.000000) scale(0.100000,-0.100000)" fill="#2EC97E" stroke="none">

<path d="M19340 2793 c-14 -9 -31 -23 -38 -30 -7 -7 -17 -13 -22 -13 -5 0 -16
-25 -25 -55 -12 -44 -15 -101 -14 -288 0 -137 5 -240 11 -252 16 -30 77 -87
88 -80 5 3 11 1 15 -5 9 -15 453 -13 511 2 36 10 53 22 80 59 l34 47 0 264 c0
289 2 278 -64 322 -21 14 -35 26 -30 27 5 0 0 4 -11 9 -11 5 -130 9 -265 9
-216 1 -249 -1 -270 -16z"/>
  </g>
</svg>